<svg width="50" height="50" viewBox="0 0 50 50" fill="none" xmlns="http://www.w3.org/2000/svg">
<circle cx="25" cy="25" r="25" fill="#FFDD33"/>
<path fill-rule="evenodd" clip-rule="evenodd" d="M26.2372 11.8053C25.6414 10.936 24.3584 10.936 23.7626 11.8053L20.0114 17.2788C19.8164 17.5634 19.5292 17.7721 19.1982 17.8696L12.8335 19.7458C11.8225 20.0439 11.4261 21.2641 12.0688 22.0993L16.1152 27.3584C16.3255 27.6318 16.4352 27.9694 16.4258 28.3143L16.2433 34.9474C16.2144 36.0009 17.2523 36.755 18.2453 36.4019L24.4974 34.1787C24.8224 34.0631 25.1774 34.0631 25.5025 34.1787L31.7545 36.4019C32.7476 36.755 33.7855 36.0009 33.7565 34.9474L33.5741 28.3143C33.5646 27.9694 33.6743 27.6318 33.8847 27.3584L37.9311 22.0993C38.5738 21.2641 38.1773 20.0439 37.1664 19.7458L30.8016 17.8696C30.4707 17.7721 30.1835 17.5634 29.9885 17.2788L26.2372 11.8053ZM24.9999 30C27.7614 30 29.9999 27.7614 29.9999 25C29.9999 22.2385 27.7614 20 24.9999 20C22.2385 20 19.9999 22.2385 19.9999 25C19.9999 27.7614 22.2385 30 24.9999 30Z" fill="#1A1A1A"/>
</svg>
