<svg width="50" height="50" viewBox="0 0 50 50" fill="none" xmlns="http://www.w3.org/2000/svg">
<path d="M47.2407 50C48.7645 50 50 48.7643 50 47.2405V2.75951C50 1.23513 48.7643 0 47.2407 0H2.75953C1.23514 0 0 1.23532 0 2.75951V47.2403C0 48.7643 1.23514 49.9998 2.75953 49.9998H47.2407V50Z" fill="#485A96"/>
<path d="M34.4992 50.0001V30.6374H40.9984L41.9715 23.0914H34.499V18.2736C34.499 16.0888 35.1056 14.6 38.2387 14.6L42.2345 14.5982V7.84907C41.5434 7.75727 39.1713 7.55176 36.4119 7.55176C30.6506 7.55176 26.7063 11.0683 26.7063 17.5265V23.0914H20.1904V30.6374H26.7063V49.9999H34.4992V50.0001Z" fill="white"/>
</svg>
