<svg width="52" height="51" viewBox="0 0 52 51" fill="none" xmlns="http://www.w3.org/2000/svg">
<path d="M26 1C12.1872 1 1 12.1872 1 26C1 37.7489 9.0617 47.5 19.9383 50.2489C19.8128 49.9362 19.7511 49.4979 19.7511 49.0617V44.8106H16.6255C14.9383 44.8106 13.3745 44.0617 12.6872 42.6851C11.8745 41.1851 11.7489 38.8723 9.68723 37.434C9.0617 36.934 9.5617 36.434 10.2489 36.4957C11.5617 36.8702 12.6234 37.7468 13.6234 39.0574C14.6234 40.3702 15.0617 40.683 16.9362 40.683C17.8106 40.683 19.1851 40.6213 20.4362 40.4319C21.1234 38.6809 22.3106 37.1191 23.7489 36.3702C15.3745 35.3702 11.3745 31.2447 11.3745 25.6191C11.3745 23.1808 12.4362 20.8681 14.1872 18.8681C13.6255 16.9298 12.8745 12.9298 14.4383 11.3681C18.1894 11.3681 20.4383 13.8064 21 14.4298C22.8745 13.8043 24.9383 13.4298 27.0617 13.4298C29.2489 13.4298 31.2489 13.8043 33.1234 14.4298C33.6851 13.8043 35.9362 11.3681 39.6851 11.3681C41.1851 12.8681 40.4979 16.9298 39.8723 18.8681C41.6234 20.8064 42.6234 23.1808 42.6234 25.6191C42.6234 31.2447 38.6851 35.3702 30.3745 36.2447C32.6872 37.4319 34.3128 40.8064 34.3128 43.3064V49C34.3128 49.1872 34.2511 49.3745 34.2511 49.5617C44 46.1872 51 36.9383 51 26C51 12.1872 39.8128 1 26 1Z" fill="white" stroke="black"/>
</svg>
