<svg width="50" height="50" viewBox="0 0 50 50" fill="none" xmlns="http://www.w3.org/2000/svg">
<path d="M16.6687 25C16.6687 20.3978 20.3986 16.666 25.001 16.666C29.6034 16.666 33.3353 20.3978 33.3353 25C33.3353 29.6022 29.6034 33.334 25.001 33.334C20.3986 33.334 16.6687 29.6022 16.6687 25ZM12.1633 25C12.1633 32.09 17.9107 37.8372 25.001 37.8372C32.0913 37.8372 37.8387 32.09 37.8387 25C37.8387 17.91 32.0913 12.1628 25.001 12.1628C17.9107 12.1628 12.1633 17.91 12.1633 25ZM35.3468 11.6538C35.3466 12.2471 35.5223 12.8272 35.8518 13.3207C36.1812 13.8142 36.6496 14.1989 37.1977 14.4262C37.7458 14.6535 38.349 14.7131 38.9311 14.5976C39.5131 14.4821 40.0477 14.1966 40.4675 13.7772C40.8872 13.3578 41.1732 12.8233 41.2892 12.2414C41.4052 11.6596 41.346 11.0563 41.1191 10.5081C40.8923 9.95979 40.5079 9.4911 40.0147 9.16126C39.5215 8.83142 38.9415 8.65524 38.3481 8.655H38.3469C37.5516 8.65537 36.7889 8.9714 36.2264 9.53366C35.6638 10.0959 35.3475 10.8585 35.3468 11.6538V11.6538ZM14.9006 45.3494C12.4631 45.2384 11.1382 44.8324 10.2578 44.4894C9.09056 44.035 8.25773 43.4938 7.3821 42.6194C6.50646 41.745 5.96444 40.913 5.51202 39.7458C5.16881 38.8658 4.76279 37.5406 4.65199 35.1032C4.53078 32.468 4.50658 31.6764 4.50658 25.0002C4.50658 18.324 4.53278 17.5346 4.65199 14.8972C4.76299 12.4598 5.17201 11.1372 5.51202 10.2546C5.96644 9.0874 6.50766 8.2546 7.3821 7.379C8.25653 6.5034 9.08856 5.9614 10.2578 5.509C11.1378 5.1658 12.4631 4.7598 14.9006 4.649C17.5359 4.5278 18.3275 4.5036 25.001 4.5036C31.6745 4.5036 32.4669 4.5298 35.1044 4.649C37.5419 4.76 38.8646 5.169 39.7472 5.509C40.9144 5.9614 41.7473 6.5046 42.6229 7.379C43.4985 8.2534 44.0386 9.0874 44.493 10.2546C44.8362 11.1346 45.2422 12.4598 45.353 14.8972C45.4742 17.5346 45.4984 18.324 45.4984 25.0002C45.4984 31.6764 45.4742 32.4658 45.353 35.1032C45.242 37.5406 44.834 38.8654 44.493 39.7458C44.0386 40.913 43.4973 41.7458 42.6229 42.6194C41.7485 43.493 40.9144 44.035 39.7472 44.4894C38.8672 44.8326 37.5419 45.2386 35.1044 45.3494C32.4691 45.4706 31.6775 45.4948 25.001 45.4948C18.3245 45.4948 17.5351 45.4706 14.9006 45.3494V45.3494ZM14.6936 0.1514C12.0321 0.2726 10.2134 0.6946 8.62515 1.3126C6.98028 1.9508 5.58782 2.807 4.19637 4.1962C2.80491 5.5854 1.95088 6.98 1.31265 8.6248C0.694628 10.214 0.272611 12.0316 0.151406 14.693C0.0282011 17.3586 0 18.2108 0 25C0 31.7892 0.0282011 32.6414 0.151406 35.307C0.272611 37.9686 0.694628 39.786 1.31265 41.3752C1.95088 43.019 2.80511 44.4152 4.19637 45.8038C5.58762 47.1924 6.98028 48.0474 8.62515 48.6874C10.2164 49.3054 12.0321 49.7274 14.6936 49.8486C17.3607 49.9698 18.2115 50 25.001 50C31.7905 50 32.6427 49.9718 35.3084 49.8486C37.9701 49.7274 39.7876 49.3054 41.3769 48.6874C43.0207 48.0474 44.4142 47.193 45.8056 45.8038C47.1971 44.4146 48.0493 43.019 48.6894 41.3752C49.3074 39.786 49.7314 37.9684 49.8506 35.307C49.9718 32.6394 50 31.7892 50 25C50 18.2108 49.9718 17.3586 49.8506 14.693C49.7294 12.0314 49.3074 10.213 48.6894 8.6248C48.0493 6.981 47.1949 5.5876 45.8056 4.1962C44.4164 2.8048 43.0207 1.9508 41.3789 1.3126C39.7876 0.6946 37.9699 0.2706 35.3104 0.1514C32.6447 0.0302 31.7925 0 25.003 0C18.2135 0 17.3607 0.0282 14.6936 0.1514Z" fill="url(#paint0_radial)"/>
<path d="M16.6687 25C16.6687 20.3978 20.3986 16.666 25.001 16.666C29.6034 16.666 33.3353 20.3978 33.3353 25C33.3353 29.6022 29.6034 33.334 25.001 33.334C20.3986 33.334 16.6687 29.6022 16.6687 25ZM12.1633 25C12.1633 32.09 17.9107 37.8372 25.001 37.8372C32.0913 37.8372 37.8387 32.09 37.8387 25C37.8387 17.91 32.0913 12.1628 25.001 12.1628C17.9107 12.1628 12.1633 17.91 12.1633 25ZM35.3468 11.6538C35.3466 12.2471 35.5223 12.8272 35.8518 13.3207C36.1812 13.8142 36.6496 14.1989 37.1977 14.4262C37.7458 14.6535 38.349 14.7131 38.9311 14.5976C39.5131 14.4821 40.0477 14.1966 40.4675 13.7772C40.8872 13.3578 41.1732 12.8233 41.2892 12.2414C41.4052 11.6596 41.346 11.0563 41.1191 10.5081C40.8923 9.95979 40.5079 9.4911 40.0147 9.16126C39.5215 8.83142 38.9415 8.65524 38.3481 8.655H38.3469C37.5516 8.65537 36.7889 8.9714 36.2264 9.53366C35.6638 10.0959 35.3475 10.8585 35.3468 11.6538V11.6538ZM14.9006 45.3494C12.4631 45.2384 11.1382 44.8324 10.2578 44.4894C9.09056 44.035 8.25773 43.4938 7.3821 42.6194C6.50646 41.745 5.96444 40.913 5.51202 39.7458C5.16881 38.8658 4.76279 37.5406 4.65199 35.1032C4.53078 32.468 4.50658 31.6764 4.50658 25.0002C4.50658 18.324 4.53278 17.5346 4.65199 14.8972C4.76299 12.4598 5.17201 11.1372 5.51202 10.2546C5.96644 9.0874 6.50766 8.2546 7.3821 7.379C8.25653 6.5034 9.08856 5.9614 10.2578 5.509C11.1378 5.1658 12.4631 4.7598 14.9006 4.649C17.5359 4.5278 18.3275 4.5036 25.001 4.5036C31.6745 4.5036 32.4669 4.5298 35.1044 4.649C37.5419 4.76 38.8646 5.169 39.7472 5.509C40.9144 5.9614 41.7473 6.5046 42.6229 7.379C43.4985 8.2534 44.0386 9.0874 44.493 10.2546C44.8362 11.1346 45.2422 12.4598 45.353 14.8972C45.4742 17.5346 45.4984 18.324 45.4984 25.0002C45.4984 31.6764 45.4742 32.4658 45.353 35.1032C45.242 37.5406 44.834 38.8654 44.493 39.7458C44.0386 40.913 43.4973 41.7458 42.6229 42.6194C41.7485 43.493 40.9144 44.035 39.7472 44.4894C38.8672 44.8326 37.5419 45.2386 35.1044 45.3494C32.4691 45.4706 31.6775 45.4948 25.001 45.4948C18.3245 45.4948 17.5351 45.4706 14.9006 45.3494V45.3494ZM14.6936 0.1514C12.0321 0.2726 10.2134 0.6946 8.62515 1.3126C6.98028 1.9508 5.58782 2.807 4.19637 4.1962C2.80491 5.5854 1.95088 6.98 1.31265 8.6248C0.694628 10.214 0.272611 12.0316 0.151406 14.693C0.0282011 17.3586 0 18.2108 0 25C0 31.7892 0.0282011 32.6414 0.151406 35.307C0.272611 37.9686 0.694628 39.786 1.31265 41.3752C1.95088 43.019 2.80511 44.4152 4.19637 45.8038C5.58762 47.1924 6.98028 48.0474 8.62515 48.6874C10.2164 49.3054 12.0321 49.7274 14.6936 49.8486C17.3607 49.9698 18.2115 50 25.001 50C31.7905 50 32.6427 49.9718 35.3084 49.8486C37.9701 49.7274 39.7876 49.3054 41.3769 48.6874C43.0207 48.0474 44.4142 47.193 45.8056 45.8038C47.1971 44.4146 48.0493 43.019 48.6894 41.3752C49.3074 39.786 49.7314 37.9684 49.8506 35.307C49.9718 32.6394 50 31.7892 50 25C50 18.2108 49.9718 17.3586 49.8506 14.693C49.7294 12.0314 49.3074 10.213 48.6894 8.6248C48.0493 6.981 47.1949 5.5876 45.8056 4.1962C44.4164 2.8048 43.0207 1.9508 41.3789 1.3126C39.7876 0.6946 37.9699 0.2706 35.3104 0.1514C32.6447 0.0302 31.7925 0 25.003 0C18.2135 0 17.3607 0.0282 14.6936 0.1514Z" fill="url(#paint1_radial)"/>
<defs>
<radialGradient id="paint0_radial" cx="0" cy="0" r="1" gradientUnits="userSpaceOnUse" gradientTransform="translate(6.64306 50.2362) scale(65.2734 65.2708)">
<stop offset="0.09" stop-color="#FA8F21"/>
<stop offset="0.78" stop-color="#D82D7E"/>
</radialGradient>
<radialGradient id="paint1_radial" cx="0" cy="0" r="1" gradientUnits="userSpaceOnUse" gradientTransform="translate(30.324 52.4762) scale(51.4445 51.4424)">
<stop offset="0.64" stop-color="#8C3AAA" stop-opacity="0"/>
<stop offset="1" stop-color="#8C3AAA"/>
</radialGradient>
</defs>
</svg>
