<svg width="50" height="50" viewBox="0 0 50 50" fill="none" xmlns="http://www.w3.org/2000/svg">
<path d="M0 3.58173C0 1.60463 1.64463 0 3.67222 0H46.013C48.0412 0 49.6852 1.60463 49.6852 3.58173V46.4189C49.6852 48.3967 48.0412 50 46.013 50H3.67222C1.64463 50 0 48.3967 0 46.4196V3.58108V3.58173Z" fill="#006699"/>
<path d="M15.0614 41.8549V19.2772H7.55689V41.8549H15.062H15.0614ZM11.3104 16.1952C13.9269 16.1952 15.5558 14.4614 15.5558 12.2948C15.5066 10.079 13.9269 8.39368 11.3603 8.39368C8.79167 8.39368 7.11426 10.079 7.11426 12.2948C7.11426 14.4614 8.74249 16.1952 11.2612 16.1952H11.3098H11.3104ZM19.2149 41.8549H26.7187V29.248C26.7187 28.5739 26.7679 27.8985 26.9659 27.4171C27.5082 26.0682 28.743 24.6721 30.8165 24.6721C33.5313 24.6721 34.6179 26.7424 34.6179 29.7778V41.8549H42.1217V28.9096C42.1217 21.975 38.42 18.748 33.4828 18.748C29.4348 18.748 27.6571 21.0104 26.6695 22.5514H26.7194V19.2779H19.2156C19.3133 21.396 19.2149 41.8555 19.2149 41.8555V41.8549Z" fill="white"/>
</svg>
