<svg width="50" height="40" viewBox="0 0 50 40" fill="none" xmlns="http://www.w3.org/2000/svg">
<path d="M33.0851 0.171131V0.16246H35.3393L36.1631 0.327196C36.7122 0.434145 37.2107 0.574302 37.6586 0.747706C38.1066 0.921109 38.5402 1.12344 38.9592 1.35463C39.3783 1.58582 39.7584 1.8214 40.0994 2.06126C40.4375 2.29826 40.741 2.54971 41.0098 2.81558C41.2756 3.08436 41.6904 3.15372 42.2539 3.02367C42.8175 2.89361 43.4244 2.71297 44.0747 2.48177C44.725 2.25058 45.3681 1.99047 46.0038 1.70145C46.6397 1.41242 47.027 1.22891 47.1657 1.15088C47.3015 1.06998 47.3738 1.02663 47.3825 1.02082L47.391 1.00782L47.4344 0.986138L47.4778 0.964465L47.5211 0.942792L47.5645 0.921109L47.5732 0.908109L47.5861 0.899436L47.5992 0.890763L47.6079 0.877763L47.6512 0.864754L47.6945 0.85609L47.686 0.921109L47.6729 0.986138L47.6512 1.05117L47.6295 1.1162L47.6079 1.15955L47.5861 1.2029L47.5645 1.26793C47.5501 1.31127 47.5357 1.36906 47.5211 1.44133C47.5067 1.5136 47.3694 1.80258 47.1093 2.30837C46.8492 2.81415 46.524 3.32713 46.1339 3.84735C45.7437 4.36756 45.394 4.76059 45.0848 5.02651C44.7727 5.29529 44.566 5.48313 44.4649 5.59008C44.3637 5.69989 44.2409 5.80103 44.0963 5.89354L43.8796 6.0366L43.8362 6.05827L43.7929 6.07996L43.7843 6.09296L43.7712 6.10163L43.7583 6.1103L43.7495 6.1233L43.7062 6.14498L43.6629 6.16666L43.6542 6.17966L43.6411 6.18833L43.6282 6.197L43.6195 6.21L43.6109 6.22301L43.5978 6.23169L43.5848 6.24035L43.5761 6.25336H43.7929L45.0067 5.99325C45.816 5.81984 46.5891 5.61032 47.326 5.36465L48.4965 4.97448L48.6266 4.93114L48.6916 4.90946L48.735 4.88778L48.7784 4.86611L48.8217 4.84444L48.8651 4.82275L48.9517 4.80975L49.0385 4.80108V4.88778L49.0168 4.89646L48.9951 4.90946L48.9864 4.92247L48.9735 4.93114L48.9604 4.9398L48.9517 4.95281L48.9432 4.96582L48.9301 4.97448L48.9171 4.98316L48.9084 4.99617L48.8998 5.00917L48.8867 5.01784L48.8651 5.06119L48.8434 5.10454L48.8304 5.11322C48.8246 5.12188 48.641 5.36751 48.2798 5.85019C47.9185 6.33572 47.7235 6.58136 47.6945 6.58717C47.6657 6.59584 47.6252 6.63919 47.5732 6.71723C47.524 6.79812 47.2177 7.12039 46.6541 7.68397C46.0906 8.24753 45.5385 8.74894 44.9982 9.18826C44.4548 9.63048 44.1802 10.1737 44.1744 10.8183C44.1658 11.4599 44.1325 12.1854 44.0747 12.9945C44.0169 13.8037 43.9085 14.678 43.7495 15.6173C43.5907 16.5566 43.345 17.6187 43.0126 18.8036C42.6803 19.9886 42.2756 21.1446 41.7987 22.2718C41.3219 23.3989 40.8234 24.4105 40.3031 25.3063C39.7829 26.2023 39.306 26.961 38.8725 27.5823C38.439 28.2037 37.9983 28.7889 37.5503 29.3381C37.1023 29.8872 36.5359 30.5058 35.851 31.1936C35.1631 31.8785 34.7874 32.2542 34.7238 32.3207C34.6573 32.3842 34.3741 32.6212 33.874 33.0316C33.377 33.4449 32.8423 33.8582 32.2701 34.2715C31.7008 34.6819 31.1776 35.0244 30.7008 35.2989C30.2238 35.5735 29.6487 35.887 28.9754 36.2397C28.3049 36.5952 27.5794 36.9246 26.7991 37.2281C26.0187 37.5315 25.1951 37.8134 24.3281 38.0735C23.4611 38.3336 22.6229 38.5359 21.8136 38.6804C21.0044 38.8248 20.0868 38.9477 19.0609 39.0488L17.5218 39.2006V39.2222H14.704V39.2006L14.3355 39.1789C14.0899 39.1644 13.8876 39.15 13.7286 39.1356C13.5696 39.1211 12.9699 39.0416 11.9295 38.8971C10.889 38.7526 10.0726 38.6081 9.48012 38.4636C8.88768 38.3191 8.00617 38.0445 6.83568 37.6399C5.66518 37.2353 4.66376 36.8263 3.83141 36.4131C3.00197 36.0027 2.48174 35.7426 2.27075 35.6328C2.06267 35.5258 1.82856 35.3929 1.56846 35.2339L1.17829 34.9955L1.16967 34.9825L1.15662 34.9738L1.14361 34.9651L1.13494 34.9521L1.09159 34.9305L1.04823 34.9087L1.03961 34.8958L1.02656 34.8871L1.01355 34.8785L1.00489 34.8654L0.996254 34.8524L0.983206 34.8437H0.961533V34.757L1.00489 34.7657L1.04823 34.7787L1.24332 34.8004C1.37337 34.8148 1.72743 34.8365 2.30544 34.8654C2.88348 34.8943 3.4976 34.8943 4.14788 34.8654C4.79815 34.8365 5.4629 34.7714 6.14205 34.6704C6.82123 34.5692 7.62324 34.3958 8.54806 34.1501C9.47293 33.9044 10.3226 33.6126 11.0972 33.2744C11.8688 32.9334 12.418 32.679 12.7445 32.5114C13.0682 32.3467 13.5624 32.0403 14.2271 31.5924L15.2242 30.9204L15.2329 30.9074L15.2459 30.8987L15.2589 30.8901L15.2676 30.8771L15.2762 30.864L15.2892 30.8554L15.3023 30.8467L15.311 30.8337L15.3542 30.8207L15.3976 30.812L15.4062 30.7687L15.4193 30.7254L15.4323 30.7166L15.441 30.7037L15.0941 30.682C14.863 30.6676 14.6389 30.6531 14.4222 30.6387C14.2055 30.6242 13.8659 30.5591 13.4035 30.4436C12.9411 30.328 12.4425 30.1545 11.9078 29.9234C11.3732 29.6921 10.853 29.4176 10.3471 29.0996C9.84144 28.7817 9.47578 28.5173 9.25036 28.3063C9.02783 28.0982 8.73881 27.8035 8.38333 27.4219C8.03074 27.0376 7.72438 26.6431 7.46427 26.2385C7.20417 25.8338 6.95563 25.367 6.71867 24.8382L6.3588 24.0492L6.33713 23.9841L6.31546 23.9191L6.30245 23.8758L6.29378 23.8324L6.3588 23.8411L6.42383 23.8541L6.90071 23.9191C7.21864 23.9625 7.71719 23.9769 8.39633 23.9625C9.07552 23.9481 9.54515 23.9191 9.80528 23.8758C10.0654 23.8324 10.2243 23.8036 10.2821 23.7891L10.3688 23.7674L10.4772 23.7458L10.5856 23.724L10.5942 23.7111L10.6073 23.7024L10.6203 23.6937L10.6289 23.6807L10.5422 23.659L10.4556 23.6374L10.3688 23.6157L10.2821 23.594L10.1954 23.5723C10.1376 23.5579 10.0365 23.5289 9.89192 23.4857C9.74749 23.4423 9.3573 23.2833 8.72146 23.0087C8.08568 22.7342 7.57989 22.4668 7.20417 22.2067C6.8275 21.9459 6.46836 21.6606 6.12904 21.3527C5.7909 21.0406 5.41955 20.6388 5.01491 20.1476C4.6103 19.6562 4.24906 19.0855 3.93112 18.4352C3.61321 17.7849 3.37478 17.1636 3.21581 16.5711C3.05748 15.982 2.95302 15.3799 2.90372 14.7719L2.82565 13.8615L2.869 13.8703L2.91235 13.8833L2.95571 13.9049L2.99906 13.9266L3.04241 13.9483L3.08576 13.9699L3.75772 14.2734C4.20571 14.4758 4.76203 14.6491 5.42674 14.7936C6.0915 14.9381 6.48886 15.0176 6.61892 15.032L6.81399 15.0537H7.20417L7.19553 15.0408L7.18248 15.032L7.16948 15.0234L7.16081 15.0104L7.15219 14.9974L7.13914 14.9887L7.12613 14.98L7.11746 14.967L7.07411 14.9454L7.03075 14.9236L7.02213 14.9107L7.00908 14.902L6.99607 14.8934L6.98741 14.8803L6.94405 14.8586L6.90071 14.837L6.89207 14.8239C6.88341 14.8182 6.75912 14.7257 6.51921 14.5465C6.28221 14.3644 6.03367 14.1289 5.77356 13.8399C5.51345 13.5509 5.25334 13.2474 4.99323 12.9295C4.73264 12.6109 4.50054 12.27 4.29961 11.9108C4.09733 11.5495 3.88343 11.0899 3.658 10.5322C3.43547 9.9773 3.26641 9.41807 3.15079 8.85446C3.03522 8.29089 2.97019 7.73455 2.95571 7.18542C2.94127 6.63628 2.95571 6.16666 2.99906 5.77649C3.04241 5.38633 3.12911 4.94557 3.25917 4.45427C3.38922 3.96297 3.57711 3.44274 3.82273 2.89361L4.19122 2.06993L4.2129 2.00491L4.23458 1.93988L4.24763 1.93121L4.25625 1.9182L4.26493 1.9052L4.27793 1.89652L4.29097 1.9052L4.29961 1.9182L4.30827 1.93121L4.32128 1.93988L4.33433 1.94854L4.34296 1.96155L4.35163 1.97456L4.36463 1.98322L4.38631 2.02658L4.40798 2.06993L4.42103 2.0786L4.42966 2.09161L5.01491 2.74188C5.40507 3.1754 5.8675 3.6595 6.40216 4.19416C6.93686 4.72881 7.23308 5.00626 7.29087 5.02651C7.3487 5.04962 7.42092 5.11607 7.50762 5.22593C7.59433 5.33288 7.88335 5.58865 8.37466 5.99325C8.866 6.39785 9.50903 6.86752 10.3038 7.40218C11.0986 7.93683 11.9801 8.46429 12.9483 8.98451C13.9164 9.50471 14.9569 9.97432 16.0696 10.3935C17.1823 10.8125 17.9626 11.0871 18.4106 11.2171C18.8585 11.3472 19.6244 11.5134 20.7082 11.7157C21.792 11.918 22.6085 12.0481 23.1576 12.1059C23.7067 12.1636 24.0824 12.1968 24.2847 12.2056L24.5882 12.2142L24.5795 12.1492L24.5664 12.0841L24.4798 11.5423C24.422 11.1811 24.3931 10.6752 24.3931 10.025C24.3931 9.37471 24.4436 8.77499 24.5448 8.22586C24.646 7.67672 24.7977 7.12039 25 6.55682C25.2023 5.99325 25.4003 5.54092 25.5939 5.19992C25.7905 4.86177 26.0477 4.47595 26.3656 4.04243C26.6835 3.60891 27.0954 3.16096 27.601 2.69853C28.1069 2.2361 28.6849 1.82425 29.3352 1.463C29.9855 1.10176 30.5852 0.827167 31.1342 0.639331C31.6834 0.451485 32.1458 0.328627 32.5215 0.270839C32.8972 0.213052 33.0851 0.179801 33.0851 0.171131Z" fill="black"/>
</svg>
