<svg width="52" height="42" viewBox="0 0 52 42" fill="none" xmlns="http://www.w3.org/2000/svg">
<path d="M34.4085 0.697982V0.688965H36.7529L37.6096 0.86029C38.1807 0.971517 38.6991 1.11728 39.165 1.29762C39.6309 1.47796 40.0818 1.68838 40.5176 1.92882C40.9534 2.16926 41.3487 2.41426 41.7034 2.66372C42.055 2.9102 42.3706 3.1717 42.6502 3.44821C42.9266 3.72774 43.358 3.79988 43.9441 3.66462C44.5302 3.52936 45.1614 3.34149 45.8377 3.10105C46.514 2.86061 47.1828 2.59009 47.844 2.28951C48.5053 1.98892 48.9081 1.79807 49.0523 1.71692C49.1936 1.63279 49.2688 1.5877 49.2778 1.58166L49.2867 1.56814L49.3318 1.54559L49.3769 1.52305L49.422 1.50051L49.4671 1.47796L49.4761 1.46444L49.4896 1.45542L49.5032 1.4464L49.5122 1.43288L49.5573 1.41935L49.6023 1.41034L49.5934 1.47796L49.5798 1.54559L49.5573 1.61322L49.5347 1.68085L49.5122 1.72594L49.4896 1.77102L49.4671 1.83865C49.4521 1.88373 49.4371 1.94383 49.422 2.01899C49.407 2.09415 49.2642 2.39469 48.9937 2.92071C48.7232 3.44672 48.385 3.98022 47.9793 4.52125C47.5735 5.06227 47.2098 5.47102 46.8882 5.74758C46.5636 6.02711 46.3487 6.22246 46.2435 6.33369C46.1383 6.44789 46.0105 6.55308 45.8602 6.64929L45.6348 6.79807L45.5897 6.82061L45.5446 6.84316L45.5357 6.85668L45.5221 6.8657L45.5086 6.87472L45.4995 6.88824L45.4545 6.91079L45.4094 6.93333L45.4004 6.94685L45.3868 6.95587L45.3733 6.96489L45.3643 6.97841L45.3553 6.99194L45.3417 7.00096L45.3282 7.00997L45.3192 7.0235H45.5446L46.807 6.75299C47.6486 6.57264 48.4527 6.35474 49.2191 6.09924L50.4364 5.69347L50.5717 5.64839L50.6393 5.62584L50.6844 5.6033L50.7295 5.58076L50.7746 5.55822L50.8197 5.53567L50.9098 5.52215L51 5.51313V5.6033L50.9775 5.61232L50.9549 5.62584L50.9459 5.63937L50.9324 5.64839L50.9188 5.6574L50.9098 5.67093L50.9009 5.68446L50.8873 5.69347L50.8738 5.70249L50.8647 5.71602L50.8558 5.72954L50.8422 5.73856L50.8197 5.78364L50.7971 5.82873L50.7836 5.83775C50.7776 5.84676 50.5867 6.10222 50.211 6.6042C49.8353 7.10916 49.6324 7.36462 49.6023 7.37066C49.5723 7.37968 49.5302 7.42476 49.4761 7.50592C49.425 7.59005 49.1064 7.92521 48.5203 8.51133C47.9342 9.09744 47.3601 9.6189 46.7981 10.0758C46.233 10.5357 45.9474 11.1007 45.9414 11.771C45.9324 12.4383 45.8978 13.1928 45.8377 14.0343C45.7776 14.8759 45.6649 15.7851 45.4995 16.762C45.3343 17.7389 45.0788 18.8435 44.7331 20.0758C44.3875 21.3081 43.9666 22.5104 43.4707 23.6827C42.9748 24.8549 42.4563 25.9069 41.9152 26.8386C41.3742 27.7704 40.8783 28.5594 40.4274 29.2056C39.9766 29.8519 39.5182 30.4605 39.0523 31.0316C38.5864 31.6027 37.9973 32.246 37.285 32.9613C36.5696 33.6736 36.1789 34.0644 36.1128 34.1335C36.0436 34.1996 35.7491 34.4461 35.229 34.8729C34.7121 35.3027 34.156 35.7325 33.5609 36.1624C32.9688 36.5892 32.4247 36.9454 31.9288 37.2309C31.4328 37.5164 30.8347 37.8425 30.1344 38.2093C29.4371 38.579 28.6826 38.9216 27.8711 39.2372C27.0595 39.5528 26.2029 39.8459 25.3012 40.1164C24.3995 40.3869 23.5278 40.5973 22.6862 40.7476C21.8446 40.8978 20.8903 41.0256 19.8233 41.1308L18.2227 41.2886V41.3111H15.2922V41.2886L14.9089 41.2661C14.6535 41.251 14.4431 41.236 14.2777 41.221C14.1124 41.206 13.4887 41.1233 12.4067 40.973C11.3246 40.8227 10.4755 40.6724 9.85933 40.5221C9.24319 40.3719 8.32642 40.0863 7.10911 39.6655C5.89179 39.2447 4.85032 38.8194 3.98467 38.3896C3.12205 37.9628 2.58102 37.6923 2.36159 37.5781C2.14518 37.4668 1.90171 37.3286 1.6312 37.1633L1.22543 36.9153L1.21646 36.9018L1.20289 36.8928L1.18936 36.8837L1.18034 36.8702L1.13526 36.8477L1.09017 36.8251L1.0812 36.8116L1.06763 36.8026L1.0541 36.7936L1.04509 36.78L1.03611 36.7665L1.02254 36.7575H1V36.6673L1.04509 36.6763L1.09017 36.6899L1.29306 36.7124C1.42831 36.7274 1.79653 36.75 2.39766 36.78C2.99883 36.8101 3.63751 36.8101 4.3138 36.78C4.99008 36.75 5.68142 36.6823 6.38774 36.5772C7.09409 36.472 7.92818 36.2916 8.88999 36.0361C9.85185 35.7806 10.7355 35.4771 11.5411 35.1254C12.3436 34.7707 12.9147 34.5062 13.2543 34.3319C13.5909 34.1606 14.1049 33.8419 14.7962 33.3761L15.8332 32.6772L15.8422 32.6637L15.8557 32.6547L15.8693 32.6457L15.8783 32.6322L15.8873 32.6186L15.9008 32.6096L15.9144 32.6006L15.9234 32.5871L15.9684 32.5735L16.0135 32.5645L16.0225 32.5194L16.0361 32.4744L16.0496 32.4653L16.0586 32.4518L15.6979 32.4293C15.4575 32.4143 15.2245 32.3992 14.9991 32.3842C14.7737 32.3692 14.4205 32.3015 13.9396 32.1813C13.4587 32.0611 12.9402 31.8807 12.3841 31.6403C11.8281 31.3998 11.2871 31.1143 10.761 30.7836C10.2351 30.453 9.85482 30.178 9.62038 29.9586C9.38895 29.7421 9.08837 29.4356 8.71867 29.0388C8.35198 28.6391 8.03336 28.2288 7.76285 27.808C7.49234 27.3872 7.23386 26.9017 6.98742 26.3517L6.61316 25.5312L6.59062 25.4635L6.56808 25.3959L6.55455 25.3508L6.54554 25.3057L6.61316 25.3148L6.68079 25.3283L7.17674 25.3959C7.50739 25.441 8.02588 25.456 8.73219 25.441C9.43855 25.426 9.92696 25.3959 10.1975 25.3508C10.468 25.3057 10.6333 25.2757 10.6934 25.2607L10.7836 25.2381L10.8963 25.2156L11.009 25.193L11.018 25.1795L11.0316 25.1705L11.0451 25.1615L11.0541 25.1479L10.9639 25.1254L10.8738 25.1029L10.7836 25.0803L10.6934 25.0578L10.6032 25.0352C10.5431 25.0202 10.438 24.9901 10.2876 24.9451C10.1374 24.9 9.7316 24.7346 9.07033 24.4491C8.40911 24.1636 7.88309 23.8855 7.49234 23.615C7.10061 23.3437 6.7271 23.047 6.37421 22.7268C6.02254 22.4022 5.63634 21.9844 5.21551 21.4735C4.79472 20.9625 4.41903 20.3689 4.08837 19.6926C3.75775 19.0163 3.50978 18.3701 3.34445 17.7539C3.17979 17.1413 3.07115 16.5151 3.01988 15.8828L2.93868 14.936L2.98377 14.9451L3.02885 14.9586L3.07394 14.9811L3.11903 15.0037L3.16411 15.0262L3.2092 15.0487L3.90803 15.3643C4.37394 15.5748 4.95252 15.7551 5.64382 15.9054C6.33517 16.0556 6.74842 16.1383 6.88368 16.1533L7.08656 16.1759H7.49234L7.48336 16.1624L7.46979 16.1533L7.45627 16.1443L7.44725 16.1308L7.43828 16.1173L7.42471 16.1083L7.41118 16.0992L7.40216 16.0857L7.35708 16.0632L7.31199 16.0406L7.30302 16.0271L7.28945 16.0181L7.27592 16.0091L7.26691 15.9955L7.22182 15.973L7.17674 15.9505L7.16776 15.9369C7.15875 15.9309 7.02949 15.8347 6.77998 15.6484C6.5335 15.459 6.27502 15.2141 6.00451 14.9135C5.73399 14.6129 5.46348 14.2973 5.19297 13.9667C4.92195 13.6353 4.68057 13.2808 4.4716 12.9072C4.26123 12.5315 4.03877 12.0535 3.80433 11.4735C3.5729 10.8964 3.39707 10.3148 3.27683 9.72864C3.15663 9.14253 3.089 8.56394 3.07394 7.99284C3.05893 7.42174 3.07394 6.93333 3.11903 6.52756C3.16411 6.12179 3.25428 5.6634 3.38954 5.15245C3.5248 4.64149 3.7202 4.10046 3.97565 3.52936L4.35888 2.67273L4.38142 2.60511L4.40397 2.53748L4.41754 2.52846L4.42651 2.51493L4.43553 2.50141L4.44905 2.49239L4.46262 2.50141L4.4716 2.51493L4.48061 2.52846L4.49414 2.53748L4.50771 2.54649L4.51668 2.56002L4.5257 2.57355L4.53922 2.58256L4.56177 2.62765L4.58431 2.67273L4.59788 2.68175L4.60685 2.69528L5.21551 3.37156C5.62128 3.82242 6.10221 4.32589 6.65825 4.88193C7.21434 5.43797 7.52241 5.72652 7.58251 5.74758C7.64265 5.77161 7.71776 5.84072 7.80793 5.95497C7.89811 6.0662 8.19869 6.3322 8.70965 6.75299C9.22065 7.17377 9.8894 7.66223 10.716 8.21827C11.5426 8.77431 12.4593 9.32287 13.4662 9.8639C14.4731 10.4049 15.5552 10.8933 16.7124 11.3292C17.8696 11.765 18.6811 12.0506 19.147 12.1858C19.6129 12.3211 20.4094 12.4939 21.5365 12.7043C22.6637 12.9147 23.5128 13.05 24.0839 13.1101C24.655 13.1702 25.0457 13.2047 25.2561 13.2138L25.5717 13.2228L25.5627 13.1552L25.5491 13.0875L25.459 12.524C25.3989 12.1483 25.3688 11.6222 25.3688 10.946C25.3688 10.2697 25.4214 9.646 25.5266 9.0749C25.6318 8.5038 25.7896 7.92521 26 7.3391C26.2104 6.75299 26.4163 6.28256 26.6177 5.92792C26.8221 5.57625 27.0896 5.17499 27.4202 4.72413C27.7509 4.27327 28.1792 3.8074 28.7051 3.32648C29.2312 2.84555 29.8323 2.41723 30.5086 2.04153C31.1849 1.66584 31.8086 1.38026 32.3796 1.18491C32.9507 0.989551 33.4316 0.861778 33.8224 0.801679C34.2131 0.74158 34.4085 0.706999 34.4085 0.697982V0.697982Z" fill="#5DA8DC" stroke="#5DA8DC" stroke-width="1.12646"/>
</svg>
