<svg width="50" height="36" viewBox="0 0 50 36" fill="none" xmlns="http://www.w3.org/2000/svg">
<path d="M33.306 17.4885C28.7216 15.0386 24.332 12.7863 19.845 10.4347V24.5024C24.5667 21.9356 29.5435 19.585 33.3255 17.4885H33.306V17.4885Z" fill="white"/>
<path d="M33.306 17.4885C28.7216 15.0386 19.845 10.4347 19.845 10.4347L31.6799 18.3893C31.6808 18.3893 29.524 19.585 33.306 17.4885Z" fill="#E8E0E0"/>
<path d="M20.7077 35.5144C11.1854 35.3391 7.93312 35.1814 5.93405 34.7695C4.58154 34.4959 3.40621 33.8883 2.54443 33.007C1.87838 32.34 1.34869 31.3224 0.937748 29.9105C0.585242 28.7343 0.44795 27.7556 0.252217 25.3651C-0.0474124 19.9699 -0.118841 15.5589 0.252217 10.6303C0.55834 7.90864 0.706763 4.67765 2.74016 2.79267C3.70028 1.91048 4.81716 1.34276 6.07134 1.10807C8.03053 0.736081 16.3775 0.442017 25.0185 0.442017C33.64 0.442017 42.0055 0.736081 43.9666 1.10807C45.5334 1.40213 47.0028 2.28339 47.8655 3.41976C49.7208 6.33813 49.7532 9.96708 49.9416 12.8057C50.0195 14.1582 50.0195 21.8382 49.9416 23.1907C49.6484 27.6768 49.4128 29.264 48.7468 30.9096C48.3349 31.9486 47.9833 32.4968 47.3748 33.1044C46.4204 34.0394 45.2037 34.6614 43.8868 34.8874C35.6465 35.507 28.6493 35.6415 20.7077 35.5144V35.5144ZM33.3265 17.4884C28.7421 15.0385 24.3525 12.7667 19.8654 10.4151V24.4838C24.5871 21.917 29.5649 19.5654 33.346 17.469L33.3265 17.4884Z" fill="#CD201F"/>
</svg>
