<svg width="50" height="37" viewBox="0 0 50 37" fill="none" xmlns="http://www.w3.org/2000/svg">
<g clip-path="url(#clip0)">
<path d="M33.306 17.9885C28.7216 15.5386 24.332 13.2863 19.845 10.9347V25.0024C24.5667 22.4356 29.5435 20.085 33.3255 17.9885H33.306Z" fill="white"/>
<path d="M33.306 17.9885C28.7216 15.5386 19.845 10.9347 19.845 10.9347L31.6799 18.8893C31.6808 18.8893 29.524 20.085 33.306 17.9885Z" fill="#E8E0E0"/>
<path d="M20.7077 36.0144C11.1854 35.8391 7.93312 35.6814 5.93405 35.2695C4.58154 34.9959 3.40621 34.3883 2.54443 33.507C1.87838 32.84 1.34869 31.8224 0.937748 30.4105C0.585242 29.2343 0.44795 28.2556 0.252217 25.8651C-0.0474125 20.4699 -0.118841 16.0589 0.252217 11.1303C0.55834 8.40864 0.706763 5.17765 2.74016 3.29267C3.70028 2.41048 4.81716 1.84276 6.07134 1.60807C8.03053 1.23608 16.3775 0.942017 25.0185 0.942017C33.64 0.942017 42.0055 1.23608 43.9666 1.60807C45.5334 1.90213 47.0028 2.78339 47.8655 3.91976C49.7208 6.83813 49.7532 10.4671 49.9416 13.3057C50.0195 14.6582 50.0195 22.3382 49.9416 23.6907C49.6484 28.1768 49.4128 29.764 48.7468 31.4096C48.3349 32.4486 47.9833 32.9968 47.3748 33.6044C46.4204 34.5394 45.2037 35.1614 43.8868 35.3874C35.6465 36.007 28.6493 36.1415 20.7077 36.0144ZM33.3265 17.9884C28.7421 15.5385 24.3525 13.2667 19.8654 10.9151V24.9838C24.5871 22.417 29.5649 20.0654 33.346 17.969L33.3265 17.9884Z" fill="black"/>
</g>
<defs>
<clipPath id="clip0">
<rect width="50" height="36" fill="white" transform="translate(0 0.5)"/>
</clipPath>
</defs>
</svg>
